HIERARCHY
ROOT root
{
	OFFSET	0	13.1	24.9
	CHANNELS 6  Xposition Yposition Zposition Xrotation Yrotation Zrotation
	JOINT spine_1
	{
		OFFSET	0	9.99999	0
		CHANNELS 3  Xrotation Yrotation Zrotation
		JOINT spine_2
		{
			OFFSET	0	112	-10
			CHANNELS 3  Xrotation Yrotation Zrotation
			JOINT spine_3
			{
				OFFSET	0	206.5	19.3
				CHANNELS 3  Xrotation Yrotation Zrotation
				JOINT spine_4
				{
					OFFSET	0	110.4	14.6
					CHANNELS 3  Xrotation Yrotation Zrotation
					JOINT neck_1
					{
						OFFSET	0	71.8	-50.3
						CHANNELS 3  Xrotation Yrotation Zrotation
						JOINT neck_2
						{
							OFFSET	0	86.2	-25.8
							CHANNELS 3  Xrotation Yrotation Zrotation
							JOINT head_ee
							{
								OFFSET	0	179.8	-8.7
								CHANNELS 3  Xrotation Yrotation Zrotation
								End Site
								{
									OFFSET	1	0	0
								}
							}
						}
					}
					JOINT left_clavicle
					{
						OFFSET	-43.2	22.4	-70.8
						CHANNELS 3  Xrotation Yrotation Zrotation
						JOINT left_shoulder
						{
							OFFSET	-93.9	-5.79999	48.7
							CHANNELS 3  Xrotation Yrotation Zrotation
							JOINT left_elbow
							{
								OFFSET	-291.4	-30.8	15.2
								CHANNELS 3  Xrotation Yrotation Zrotation
								JOINT left_lowarm_twist
								{
									OFFSET	-110.7	-3.89999	13.6
									CHANNELS 3  Xrotation Yrotation Zrotation
									JOINT left_hand
									{
										OFFSET	-110.7	-3.89999	13.6
										CHANNELS 3  Xrotation Yrotation Zrotation
										JOINT left_ee
										{
											OFFSET	-80.8	-5.10001	12.1
											CHANNELS 3  Xrotation Yrotation Zrotation
											End Site
											{
												OFFSET	1	0	0
											}
										}
									}
								}
							}
						}
					}
					JOINT right_clavicle
					{
						OFFSET	43.2	22.4	-70.8
						CHANNELS 3  Xrotation Yrotation Zrotation
						JOINT right_shoulder
						{
							OFFSET	93.9	-5.79999	48.7
							CHANNELS 3  Xrotation Yrotation Zrotation
							JOINT right_elbow
							{
								OFFSET	291.4	-30.8	15.2
								CHANNELS 3  Xrotation Yrotation Zrotation
								JOINT right_lowarm_twist
								{
									OFFSET	110.7	-3.89999	13.6
									CHANNELS 3  Xrotation Yrotation Zrotation
									JOINT right_hand
									{
										OFFSET	110.7	-3.89999	13.6
										CHANNELS 3  Xrotation Yrotation Zrotation
										JOINT right_ee
										{
											OFFSET	80.8	-5.10001	12.1
											CHANNELS 3  Xrotation Yrotation Zrotation
											End Site
											{
												OFFSET	1	0	0
											}
										}
									}
								}
							}
						}
					}
				}
			}
		}
	}
	JOINT left_hip
	{
		OFFSET	-82.8	-127.5	0.300001
		CHANNELS 3  Xrotation Yrotation Zrotation
		JOINT left_knee
		{
			OFFSET	-28.2	-396.7	2.2
			CHANNELS 3  Xrotation Yrotation Zrotation
			JOINT left_ankle
			{
				OFFSET	-11.7	-411.3	35.4
				CHANNELS 3  Xrotation Yrotation Zrotation
				JOINT left_toes
				{
					OFFSET	0	-60	-88.6
					CHANNELS 3  Xrotation Yrotation Zrotation
					JOINT left_foot_ee
					{
						OFFSET	-22.5	-16.5	-42.2
						CHANNELS 3  Xrotation Yrotation Zrotation
						End Site
						{
							OFFSET	1	0	0
						}
					}
				}
			}
		}
	}
	JOINT right_hip
	{
		OFFSET	82.8	-127.5	0.300001
		CHANNELS 3  Xrotation Yrotation Zrotation
		JOINT right_knee
		{
			OFFSET	28.2	-396.7	2.2
			CHANNELS 3  Xrotation Yrotation Zrotation
			JOINT right_ankle
			{
				OFFSET	11.7	-411.3	35.4
				CHANNELS 3  Xrotation Yrotation Zrotation
				JOINT right_toes
				{
					OFFSET	0	-60	-88.6
					CHANNELS 3  Xrotation Yrotation Zrotation
					JOINT right_foot_ee
					{
						OFFSET	22.5	-16.5	-42.2
						CHANNELS 3  Xrotation Yrotation Zrotation
						End Site
						{
							OFFSET	1	0	0
						}
					}
				}
			}
		}
	}
}
MOTION
Frames: 8
Frame Time: 0.02
734.018 522.198 -433.713 41.2719 -75.295 47.7341 -7.80197 -0.0202591 -2.08658 -7.79955 0.112527 -2.08364 -7.79864 0.816414 -1.9204 -7.80344 0.502944 -2.02518 -9.15945 6.49687 3.20326 -9.15693 9.98418 4.67214 -0.0 0.0 -0.0 10.6926 17.6743 19.003 -19.6772 2.92097 63.4466 0.559791 -15.4991 0.0761802 16.0152 0.283688 -2.01948 -3.68186 28.8419 -8.59642 -0.0 0.0 -0.0 12.0716 18.5858 -24.1915 40.8535 15.6041 -54.3091 2.31315 48.8817 -1.05139 29.2387 -0.0892573 3.6937 -0.626005 -13.2184 -1.49991 0.0 0.0 0.0 47.4627 -3.17569 -4.97092 -38.3162 -0.363134 5.76111 -0.557367 20.6925 0.0835777 -3.8723 0.0 0.0 -0.0 0.0 -0.0 -7.95199 17.0642 -19.9553 -62.6013 2.48733 -8.80564 40.0454 2.59053 4.90388 40.2457 -0.0 -0.0 0.0 0.0 0.0 
753.572 509.352 -441.935 48.4757 -75.2873 53.9329 -8.11268 0.0128805 -1.63689 -8.1112 0.117 -1.63275 -8.11147 0.674906 -1.49137 -8.11431 0.430934 -1.57921 -9.49378 6.56765 3.64466 -9.48562 9.84907 5.14553 -0.0 0.0 -0.0 10.6888 17.6068 19.0083 -18.8253 2.84224 63.7739 0.624865 -17.1995 0.0945001 19.3804 0.270979 -2.44906 -3.42366 28.9361 -7.13767 -0.0 0.0 -0.0 12.0066 19.1946 -24.0039 41.2909 15.5746 -55.1969 2.25676 48.1805 -1.00914 30.0059 -0.0661741 3.78897 -0.632662 -14.2607 -1.89889 0.0 0.0 0.0 49.6453 -3.71992 -4.88127 -47.3449 -0.998875 6.99413 -0.41554 19.7064 0.0620683 -3.85425 0.0 0.0 -0.0 0.0 -0.0 -12.5049 20.5033 -18.9967 -61.3492 2.34742 -8.67238 39.7827 0.83897 4.86391 40.2172 -0.0 -0.0 0.0 0.0 0.0 
779.978 503.664 -447.326 51.2919 -75.6428 56.4021 -8.24553 0.0918196 -1.38992 -8.24448 0.180069 -1.38126 -8.24683 0.649918 -1.23206 -8.24867 0.447199 -1.31922 -8.92755 6.02992 2.9778 -8.92333 9.24057 4.32451 -0.0 0.0 -0.0 10.7181 18.2156 18.9502 -18.3173 2.0334 63.5086 0.661871 -18.1529 0.105737 22.2699 0.239957 -2.8168 -2.98729 28.885 -4.8106 -0.0 0.0 -0.0 12.2262 19.765 -24.4705 40.6899 15.0916 -55.2401 2.27352 48.3909 -1.02165 30.7579 -0.0423103 3.88206 -0.484066 -13.5315 -2.52131 0.0 0.0 0.0 50.017 -4.01253 -5.35465 -52.9196 -1.48583 7.70076 -0.974648 18.7833 0.145311 -2.93167 0.0 0.0 -0.0 0.0 -0.0 -15.8501 22.477 -18.1329 -58.5617 2.0467 -8.36508 40.4329 1.93436 4.92989 40.3504 -0.0 -0.0 0.0 0.0 0.0 
803.7 499.435 -457.047 54.3018 -75.9982 58.9912 -8.65375 0.0733283 -1.01407 -8.65319 0.137704 -1.00735 -8.65454 0.486294 -0.892892 -8.65549 0.339182 -0.958481 -8.12191 6.26866 3.84443 -8.09543 8.99814 5.17626 -0.0 0.0 -0.0 10.6806 18.4582 18.8437 -17.3468 1.54517 63.6722 0.78389 -21.2219 0.146858 25.0446 0.192752 -3.16806 -2.70875 28.7795 -3.3685 -0.0 0.0 -0.0 12.3174 21.1009 -24.5814 40.531 14.7648 -54.915 2.24503 48.0322 -1.00041 31.9434 -0.00220978 4.02817 -0.106249 -11.3907 -4.0273 0.0 0.0 0.0 51.6633 -4.56849 -5.30805 -59.8852 -2.1876 8.51279 0.539042 19.323 -0.0802377 0.470032 -0.0 -0.0 -0.0 0.0 -0.0 -16.4712 23.691 -17.3349 -61.7567 2.39263 -8.71608 39.1011 -1.24621 4.78975 40.2029 -0.0 -0.0 0.0 0.0 0.0 
821.406 497.82 -459.114 57.1615 -76.0222 61.7149 -8.85901 0.109421 -0.750999 -8.85871 0.156985 -0.742515 -8.86025 0.412594 -0.636981 -8.86068 0.306819 -0.694145 -6.58895 6.25954 4.29157 -6.54272 8.48038 5.52832 -0.0 0.0 -0.0 10.2664 18.4626 18.1525 -13.6713 1.29311 64.4769 0.892783 -23.8575 0.188611 26.881 0.152176 -3.39913 -2.37181 27.5858 -2.1651 -0.0 0.0 -0.0 12.5106 21.3351 -25.0084 40.3786 14.4235 -55.166 2.22851 47.8219 -0.98815 32.4209 0.0147949 4.08678 -0.122749 -12.829 -4.50508 0.0 0.0 0.0 52.6523 -5.93061 -5.19975 -64.6694 -2.72472 9.019 0.338228 20.8326 -0.0506441 2.2183 -0.0 -0.0 -0.0 0.0 -0.0 -18.2556 25.447 -17.1688 -60.9493 2.30336 -8.62919 38.3678 -3.89927 4.71483 40.1095 -0.0 -0.0 0.0 0.0 0.0 
840.754 495.806 -459.284 60.6437 -76.2735 65.63 -9.21013 0.160596 -0.565365 -9.20997 0.196246 -0.554001 -9.21171 0.384437 -0.444567 -9.21185 0.309402 -0.499701 -5.20022 6.60892 3.68689 -5.15613 9.40691 4.9061 -0.0 0.0 -0.0 10.337 18.5971 18.2469 -10.492 0.950043 63.4371 0.907133 -24.1973 0.194454 30.0958 0.063383 -3.80013 -1.79411 28.7223 1.5174 -0.0 0.0 -0.0 12.1894 21.2152 -24.2777 38.7816 14.7847 -55.8837 2.45507 50.5633 -1.15968 33.9841 0.0738715 4.27763 0.0250327 -13.702 -5.78508 0.0 0.0 0.0 53.2428 -8.62918 -5.21306 -69.1628 -3.26626 9.45249 -1.20113 20.8002 0.180432 3.85073 -0.0 -0.0 -0.0 0.0 -0.0 -19.1994 26.5119 -17.1449 -62.8196 2.51202 -8.82856 37.7551 -6.96258 4.66018 40.118 -0.0 -0.0 0.0 0.0 0.0 
862.847 492.381 -463.308 59.9541 -76.5822 65.0522 -9.27674 0.103597 -0.346651 -9.27668 0.125445 -0.339356 -9.27736 0.240669 -0.270144 -9.27741 0.194985 -0.304762 -3.83625 6.91355 3.5544 -3.78235 9.90182 4.74084 -0.0 0.0 -0.0 10.3883 18.5679 18.3369 -8.16335 0.64897 63.1847 0.899361 -24.0135 0.191279 32.3927 -0.013777 -4.08332 -1.04181 29.0246 5.69489 -0.0 0.0 -0.0 12.0604 21.5484 -23.9543 37.2978 14.9179 -55.8557 2.56855 51.8267 -1.24812 34.8635 0.109395 4.38429 0.0601822 -15.1318 -6.56732 0.0 0.0 0.0 53.1521 -9.70616 -5.22689 -70.9868 -3.49554 9.6162 -1.47085 21.7732 0.221931 6.00466 -0.0 -0.0 -0.0 0.0 -0.0 -20.5976 26.9407 -16.9802 -62.3829 2.46271 -8.78261 35.055 -6.7898 4.40476 38.0339 -0.0 -0.0 0.0 0.0 0.0 
889.208 491.153 -465.881 59.027 -76.8719 64.6653 -9.29741 0.0971627 -0.560573 -9.29725 0.132636 -0.553254 -9.29827 0.325622 -0.466535 -9.29849 0.247856 -0.512105 -1.82906 7.25648 3.49455 -1.75732 10.3182 4.61239 -0.0 0.0 -0.0 10.4842 18.3664 18.5314 -5.39052 -0.179122 63.2052 0.841328 -22.6247 0.168305 34.0873 -0.0779569 -4.29018 -0.697369 28.9707 7.53259 -0.0 0.0 -0.0 12.1302 21.5111 -24.1175 35.318 14.9216 -55.1918 2.64132 52.6013 -1.30563 35.7784 0.148086 4.49467 0.311497 -15.7431 -8.36896 0.0 0.0 0.0 53.4795 -11.5344 -4.93429 -73.9261 -3.87567 9.86449 -1.71302 23.2408 0.260261 8.25817 -0.0 -0.0 -0.0 0.0 -0.0 -22.3832 27.4652 -17.2163 -60.2946 2.23188 -8.55782 34.8885 -9.27394 4.39663 38.9992 -0.0 -0.0 0.0 0.0 0.0 
